<svg width="63" height="27" viewBox="0 0 63 27" fill="none" xmlns="http://www.w3.org/2000/svg">
<path d="M12.3039 0C11.8292 0.00120488 11.3652 0.141181 10.9696 0.402578C10.5739 0.663975 10.264 1.0353 10.0782 1.47052C4.22483 1.80379 -0.0182112 2.36425 5.87742e-05 2.80234C0.0170687 3.23728 4.22861 3.42807 10.0347 3.25673C10.2363 3.79774 10.6244 4.24838 11.1296 4.52892H10.1871V6.24987H9.03424C8.96188 6.24978 8.89021 6.26391 8.82334 6.29144C8.75646 6.31897 8.69569 6.35936 8.64449 6.41031C8.59329 6.46125 8.55268 6.52175 8.52497 6.58834C8.49726 6.65494 8.48299 6.72632 8.48299 6.7984V8.02478C8.48299 8.32792 8.72932 8.57332 9.03361 8.57332H16.7927C18.7476 9.03149 18.9662 9.73003 20.4303 11.0085C20.1909 12.3347 19.8381 13.7826 19.5622 15.0341V25.6867C19.5622 26.035 19.701 26.3691 19.9483 26.6153C20.1955 26.8616 20.5308 27 20.8804 27C21.2301 27 21.5654 26.8616 21.8126 26.6153C22.0598 26.3691 22.1987 26.035 22.1987 25.6867V20.5358C22.1685 16.2052 22.8703 14.4541 25.2888 11.102L25.8968 10.8208C25.8968 13.423 27.7024 13.5792 30.2488 14.1598H28.3361C27.754 14.1598 27.2815 14.6305 27.2815 15.2111V21.4873C27.2815 22.0672 27.754 22.5379 28.3361 22.5379H34.6639C35.246 22.5379 35.7185 22.0672 35.7185 21.4873V15.2111C35.7185 14.6305 35.246 14.1604 34.6639 14.1604H32.7531C35.2989 13.578 37.1032 13.4223 37.1032 10.8208L37.7112 11.102C40.7711 14.2564 40.8013 16.4035 40.8013 20.5352V25.6861C40.8013 26.0344 40.9402 26.3684 41.1874 26.6147C41.4346 26.861 41.7699 26.9994 42.1196 26.9994C42.4692 26.9994 42.8045 26.861 43.0517 26.6147C43.299 26.3684 43.4378 26.0344 43.4378 25.6861V15.0341C43.1147 13.6589 42.7688 12.2179 42.4425 10.7901C43.8278 9.43756 44.3961 9.13316 46.1947 8.57332H53.9664C54.1124 8.57332 54.2525 8.51553 54.3557 8.41266C54.459 8.30979 54.517 8.17026 54.517 8.02478V6.7984C54.517 6.65292 54.459 6.5134 54.3557 6.41053C54.2525 6.30766 54.1124 6.24987 53.9664 6.24987H52.8129V4.52892H51.8704C52.376 4.24856 52.7644 3.79734 52.9653 3.25673C58.7714 3.42807 62.9829 3.23728 62.9999 2.80234C63.0182 2.36425 58.7752 1.80441 52.9219 1.47052C52.7424 1.05089 52.4474 0.69041 52.071 0.430704C51.6946 0.170998 51.2522 0.0226669 50.7948 0.00284549C50.3373 -0.0169759 49.8836 0.0925205 49.486 0.318687C49.0884 0.544853 48.7631 0.878462 48.5478 1.28098C42.6844 1.10336 38.4029 1.29227 38.3783 1.73035C38.3601 2.1653 42.5458 2.722 48.3493 3.05589C48.4344 3.36583 48.5807 3.65575 48.7797 3.90868C48.9786 4.16161 49.2262 4.37247 49.5079 4.52892H48.5654V6.24987C42.622 6.23606 38.0217 3.2605 31.5 3.13811C25.1981 3.27117 19.9206 6.24987 14.4346 6.24987V4.52892H13.4921C13.7738 4.37247 14.0214 4.16161 14.2203 3.90868C14.4193 3.65575 14.5656 3.36583 14.6507 3.05589C20.4542 2.722 24.6399 2.16467 24.6217 1.73035C24.5971 1.29227 20.3156 1.10273 14.4522 1.28098C14.2449 0.893127 13.9352 0.568957 13.5567 0.343354C13.1782 0.117752 12.745 -0.00136862 12.3039 0ZM31.5 15.6987C32.9786 15.6987 34.1939 16.9094 34.1939 18.3824C34.1939 19.8555 32.9786 21.0661 31.5 21.0661C30.0214 21.0661 28.8049 19.8548 28.8049 18.3818C28.8049 16.9088 30.0208 15.6987 31.5 15.6987ZM31.5 17.2734C30.8763 17.2734 30.3868 17.7605 30.3868 18.3818C30.3868 19.0032 30.8763 19.4902 31.5 19.4902C32.1237 19.4902 32.6119 19.0032 32.6119 18.3818C32.6119 17.7605 32.1237 17.2734 31.5 17.2734Z" fill="black"/>
</svg>
