<svg width="1057" height="38" viewBox="0 0 1057 38" fill="none" xmlns="http://www.w3.org/2000/svg">
<line x1="1.5" y1="36.5" x2="1025.5" y2="36.5" stroke="black" stroke-width="3" stroke-linecap="round"/>
<path d="M968.304 0C967.829 0.00120488 967.365 0.141181 966.97 0.402578C966.574 0.663975 966.264 1.0353 966.078 1.47052C960.225 1.80379 955.982 2.36425 956 2.80234C956.017 3.23728 960.229 3.42807 966.035 3.25673C966.236 3.79774 966.624 4.24838 967.13 4.52892H966.187V6.24987H965.034C964.962 6.24978 964.89 6.26391 964.823 6.29144C964.756 6.31897 964.696 6.35936 964.644 6.41031C964.593 6.46125 964.553 6.52175 964.525 6.58834C964.497 6.65494 964.483 6.72632 964.483 6.7984V8.02478C964.483 8.32792 964.729 8.57332 965.034 8.57332H972.793C974.748 9.03149 974.966 9.73003 976.43 11.0085C976.191 12.3347 975.838 13.7826 975.562 15.0341V25.6867C975.562 26.035 975.701 26.3691 975.948 26.6153C976.195 26.8616 976.531 27 976.88 27C977.23 27 977.565 26.8616 977.813 26.6153C978.06 26.3691 978.199 26.035 978.199 25.6867V20.5358C978.168 16.2052 978.87 14.4541 981.289 11.102L981.897 10.8208C981.897 13.423 983.702 13.5792 986.249 14.1598H984.336C983.754 14.1598 983.282 14.6305 983.282 15.2111V21.4873C983.282 22.0672 983.754 22.5379 984.336 22.5379H990.664C991.246 22.5379 991.718 22.0672 991.718 21.4873V15.2111C991.718 14.6305 991.246 14.1604 990.664 14.1604H988.753C991.299 13.578 993.103 13.4223 993.103 10.8208L993.711 11.102C996.771 14.2564 996.801 16.4035 996.801 20.5352V25.6861C996.801 26.0344 996.94 26.3684 997.187 26.6147C997.435 26.861 997.77 26.9994 998.12 26.9994C998.469 26.9994 998.805 26.861 999.052 26.6147C999.299 26.3684 999.438 26.0344 999.438 25.6861V15.0341C999.115 13.6589 998.769 12.2179 998.442 10.7901C999.828 9.43756 1000.4 9.13316 1002.19 8.57332H1009.97C1010.11 8.57332 1010.25 8.51553 1010.36 8.41266C1010.46 8.30979 1010.52 8.17026 1010.52 8.02478V6.7984C1010.52 6.65292 1010.46 6.5134 1010.36 6.41053C1010.25 6.30766 1010.11 6.24987 1009.97 6.24987H1008.81V4.52892H1007.87C1008.38 4.24856 1008.76 3.79734 1008.97 3.25673C1014.77 3.42807 1018.98 3.23728 1019 2.80234C1019.02 2.36425 1014.78 1.80441 1008.92 1.47052C1008.74 1.05089 1008.45 0.69041 1008.07 0.430704C1007.69 0.170998 1007.25 0.0226669 1006.79 0.00284549C1006.34 -0.0169759 1005.88 0.0925205 1005.49 0.318687C1005.09 0.544853 1004.76 0.878462 1004.55 1.28098C998.684 1.10336 994.403 1.29227 994.378 1.73035C994.36 2.1653 998.546 2.722 1004.35 3.05589C1004.43 3.36583 1004.58 3.65575 1004.78 3.90868C1004.98 4.16161 1005.23 4.37247 1005.51 4.52892H1004.57V6.24987C998.622 6.23606 994.022 3.2605 987.5 3.13811C981.198 3.27117 975.921 6.24987 970.435 6.24987V4.52892H969.492C969.774 4.37247 970.021 4.16161 970.22 3.90868C970.419 3.65575 970.566 3.36583 970.651 3.05589C976.454 2.722 980.64 2.16467 980.622 1.73035C980.597 1.29227 976.316 1.10273 970.452 1.28098C970.245 0.893127 969.935 0.568957 969.557 0.343354C969.178 0.117752 968.745 -0.00136862 968.304 0ZM987.5 15.6987C988.979 15.6987 990.194 16.9094 990.194 18.3824C990.194 19.8555 988.979 21.0661 987.5 21.0661C986.021 21.0661 984.805 19.8548 984.805 18.3818C984.805 16.9088 986.021 15.6987 987.5 15.6987ZM987.5 17.2734C986.876 17.2734 986.387 17.7605 986.387 18.3818C986.387 19.0032 986.876 19.4902 987.5 19.4902C988.124 19.4902 988.612 19.0032 988.612 18.3818C988.612 17.7605 988.124 17.2734 987.5 17.2734Z" fill="black"/>
<path d="M1024 0V36H1027V24H1057V0H1024ZM1027 3H1031.5V7.5H1036V3H1040.5V7.5H1045V3H1049.5V7.5H1054V12H1049.5V16.5H1054V21H1049.5V16.5H1045V21H1040.5V16.5H1036V21H1031.5V16.5H1027V12H1031.5V7.5H1027V3ZM1031.5 12V16.5H1036V12H1031.5ZM1036 12H1040.5V7.5H1036V12ZM1040.5 12V16.5H1045V12H1040.5ZM1045 12H1049.5V7.5H1045V12Z" fill="black"/>
</svg>
